<svg width="18" height="20" viewBox="0 0 18 20" fill="none" xmlns="http://www.w3.org/2000/svg">
<path d="M13.3193 12.8226C13.2507 12.8853 13.1972 12.9345 13.1444 12.9864C12.4412 13.6781 11.7038 14.3407 11.0438 15.0701C10.458 15.7153 9.79122 16.1575 8.91726 16.2943C8.85855 16.3068 8.8006 16.3226 8.7437 16.3415C8.43843 16.4197 8.16335 16.5236 7.91639 16.7521C7.51028 17.1269 6.85104 17.0662 6.46414 16.6759C6.07724 16.2856 6.02579 15.656 6.4072 15.2643C6.64181 15.0243 6.74334 14.7519 6.82772 14.4553C6.89632 14.2052 6.98893 13.9612 7.04106 13.7077C7.12955 13.2776 7.35388 12.9527 7.67424 12.6413C9.82826 10.5474 11.9638 8.43334 14.1082 6.32939C14.4128 6.03142 14.7256 5.73953 15.0494 5.46516C15.1502 5.38022 15.2044 5.31617 15.2037 5.18135C15.1982 3.83309 15.2037 2.48484 15.2003 1.13658C15.2003 0.445599 14.7427 0 14.0341 0H1.16619C0.448641 0 0 0.445599 0 1.15613C0 6.78735 0 12.4179 0 18.0478C0 18.7563 0.452071 19.2039 1.16619 19.2046C5.45641 19.2046 9.7464 19.2046 14.0362 19.2046C14.7414 19.2046 15.2024 18.7569 15.2024 18.0666C15.2024 16.4514 15.2024 14.8364 15.2024 13.2217C15.2024 13.1603 15.1927 13.099 15.1873 13.0194C14.5088 13.6477 13.6925 13.4475 13.3193 12.8226ZM11.8712 7.10598C11.8027 7.11147 11.734 7.11282 11.6654 7.11003H2.60198C2.52692 7.11535 2.4515 7.11287 2.37698 7.10261C2.1849 7.06014 2.07308 6.94082 2.07925 6.74128C2.08543 6.55253 2.19862 6.44332 2.38178 6.40422C2.45641 6.39519 2.53173 6.39293 2.60678 6.39748H11.6729C11.7415 6.39384 11.8103 6.39542 11.8787 6.40219C11.9666 6.40881 12.0487 6.44772 12.1088 6.51119C12.1688 6.57466 12.2022 6.65802 12.2025 6.74465C12.2052 6.83565 12.1719 6.92413 12.1096 6.99151C12.0473 7.05889 11.9608 7.09992 11.8684 7.10598H11.8712ZM2.40442 2.84617C2.47281 2.83965 2.54161 2.8383 2.61021 2.84212H11.6654C11.7407 2.83863 11.8161 2.84089 11.8911 2.84887C11.9779 2.8611 12.0572 2.90437 12.1136 2.97041C12.1701 3.03645 12.1997 3.12062 12.197 3.20683C12.1957 3.28911 12.1646 3.36826 12.1093 3.43004C12.054 3.49182 11.9781 3.53219 11.8952 3.54389C11.8204 3.55345 11.7448 3.55594 11.6695 3.55131H2.60678C2.53825 3.55544 2.46952 3.55544 2.40099 3.55131C2.3097 3.54439 2.22474 3.50279 2.16416 3.43532C2.10357 3.36786 2.07213 3.27985 2.07651 3.18997C2.08817 2.98908 2.20616 2.87853 2.39893 2.84617H2.40442ZM2.40442 4.62452C2.47281 4.61796 2.54161 4.61661 2.61021 4.62047H11.6654C11.7407 4.61698 11.8161 4.61924 11.8911 4.62721C11.9779 4.63945 12.0572 4.68272 12.1136 4.74876C12.1701 4.8148 12.1997 4.89897 12.197 4.98518C12.1957 5.06756 12.1645 5.14679 12.1091 5.20859C12.0536 5.27038 11.9775 5.31069 11.8945 5.32224C11.8197 5.33238 11.7441 5.33509 11.6688 5.33033H2.6061C2.53748 5.33314 2.46875 5.33179 2.4003 5.32629C2.30888 5.31971 2.22372 5.2782 2.16306 5.21066C2.10241 5.14312 2.07109 5.05491 2.07582 4.96495C2.08817 4.76676 2.20616 4.65688 2.39961 4.62452H2.40442ZM2.08268 8.54323C2.07582 8.30863 2.23703 8.17785 2.54161 8.17785C3.1741 8.17785 3.8059 8.17785 4.43771 8.17785C5.06951 8.17785 5.68691 8.17785 6.31253 8.17785C6.59859 8.17785 6.76666 8.30526 6.77421 8.52165C6.78175 8.73805 6.60614 8.8877 6.31116 8.8877C5.05442 8.8877 3.79676 8.8877 2.53818 8.8877C2.24183 8.8877 2.08474 8.76704 2.07788 8.54323H2.08268Z" fill="#B3B3B3"/>
<path d="M9.66274 14.8764L7.85034 13.0947L13.1229 7.914L14.9367 9.6964L9.66274 14.8764Z" fill="#B3B3B3"/>
<path d="M16.4926 9.31957L15.9355 8.75532L15.5596 9.20631L13.645 7.32347C14.106 6.89338 14.5478 6.41542 15.0575 6.02241C15.5672 5.62939 16.3087 5.76893 16.7395 6.23476C16.9491 6.46128 17.0712 6.75287 17.0844 7.05874C17.0977 7.36461 17.0014 7.66537 16.8122 7.90862C16.7155 8.03063 16.6064 8.13984 16.5049 8.24568L17.0434 8.78498C17.0992 8.69292 17.164 8.60644 17.2369 8.52679C17.2695 8.49305 17.3088 8.46619 17.3523 8.44783C17.3958 8.42948 17.4427 8.42001 17.49 8.42001C17.5374 8.42001 17.5842 8.42948 17.6277 8.44783C17.6713 8.46619 17.7105 8.49305 17.7431 8.52679C17.777 8.55926 17.8039 8.59805 17.8223 8.64089C17.8406 8.68372 17.8501 8.72973 17.8501 8.77622C17.8501 8.8227 17.8406 8.86872 17.8223 8.91155C17.8039 8.95439 17.777 8.99318 17.7431 9.02565C17.5106 9.26766 17.2671 9.49753 17.027 9.73483C16.1 10.6507 15.1727 11.5633 14.2452 12.4725C14.1995 12.5206 14.1504 12.5656 14.0984 12.6073C13.9352 12.7313 13.7397 12.7212 13.61 12.579C13.5468 12.5188 13.5095 12.437 13.5059 12.3505C13.5023 12.264 13.5327 12.1795 13.5908 12.1145C13.6328 12.0629 13.6787 12.0145 13.728 11.9696C14.58 11.1314 15.4329 10.2941 16.2868 9.45776C16.3512 9.40594 16.42 9.3597 16.4926 9.31957Z" fill="#B3B3B3"/>
<path d="M9.03713 15.3854C8.5782 15.5135 8.10555 15.6591 7.62535 15.773C7.39211 15.829 7.2508 15.9807 7.10056 16.133C7.04948 16.1933 6.98051 16.2365 6.90328 16.2564C6.82605 16.2763 6.74441 16.2721 6.66976 16.2442C6.45299 16.1681 6.34528 15.8593 6.52296 15.7177C6.97023 15.3598 7.00315 14.8367 7.1623 14.3607C7.2309 14.1443 7.29196 13.9246 7.34958 13.7284L9.03713 15.3854Z" fill="#B3B3B3"/>
</svg>
