<svg width="18" height="18" viewBox="0 0 18 18" fill="none" xmlns="http://www.w3.org/2000/svg">
<path d="M1.21651 0H9.62651C9.66921 0.0116758 9.71131 0.0270388 9.75462 0.034413C10.6917 0.200333 11.4775 1.04038 11.5123 1.97199C11.5428 2.78192 11.5239 3.59308 11.522 4.40424C11.5211 4.50416 11.497 4.60247 11.4517 4.69134C11.4063 4.78021 11.341 4.85719 11.2609 4.91614C11.1597 5.00397 11.0351 5.05997 10.9026 5.07723C10.7701 5.09449 10.6355 5.07224 10.5154 5.01323C10.3881 4.96278 10.2794 4.87407 10.204 4.75917C10.1286 4.64427 10.0901 4.50876 10.0938 4.37106C10.0883 3.67358 10.0938 2.97611 10.0938 2.2817C10.0938 1.74584 9.81075 1.45763 9.28547 1.45702C8.2829 1.45702 7.28074 1.45702 6.27898 1.45702C6.23078 1.45702 6.18198 1.46132 6.12768 1.46378C6.13927 1.4816 6.14293 1.49389 6.15025 1.49696C6.93604 1.83188 7.20326 2.23992 7.20326 3.10024V13.7867H9.27327C9.81014 13.7867 10.0902 13.5009 10.0908 12.954C10.0908 12.0525 10.0908 11.151 10.0908 10.2501C10.0874 10.1541 10.0964 10.0581 10.1176 9.9644C10.1621 9.80169 10.2619 9.65989 10.3996 9.56375C10.5374 9.46761 10.7042 9.42323 10.8711 9.43837C11.2469 9.48261 11.519 9.76283 11.5214 10.1408C11.5287 11.1105 11.5287 12.08 11.5214 13.0493C11.5135 14.2967 10.5691 15.2376 9.33123 15.2419C8.68393 15.2419 8.03602 15.2419 7.38872 15.2419H7.2002C7.2002 15.4711 7.20326 15.672 7.2002 15.8779C7.20243 16.0024 7.19324 16.1269 7.17275 16.2497C6.98973 17.1346 6.1289 17.6213 5.25526 17.33C3.8724 16.8691 2.49178 16.4052 1.1134 15.9381C0.345917 15.6782 0 15.1927 0 14.3754V1.60082C0 1.54428 0 1.48713 0 1.4306C0.0317243 0.811777 0.330055 0.373626 0.886451 0.1143C0.994315 0.0701575 1.1045 0.0320002 1.21651 0Z" fill="#B3B3B3"/>
<path d="M17.2935 7.41658C17.1623 7.59602 17.0495 7.79512 16.8969 7.95244C16.0203 8.84841 15.1326 9.73454 14.2504 10.6256C14.0594 10.8185 13.8392 10.9236 13.5665 10.8714C13.2084 10.8069 12.9735 10.515 12.9717 10.134C12.9686 9.48812 12.9717 8.84349 12.9717 8.19517V7.9844H12.7673C11.8949 7.9844 11.0224 7.9844 10.15 7.9844C9.74798 7.9844 9.45697 7.75764 9.3862 7.40122C9.29408 6.93787 9.63024 6.53352 10.1128 6.53168C10.9962 6.53168 11.8821 6.53168 12.7636 6.53168H12.9717V6.34732C12.9717 5.70638 12.9717 5.06605 12.9717 4.42511C12.9717 4.08528 13.1022 3.82411 13.4164 3.69261C13.7306 3.5611 14.0082 3.64652 14.2467 3.88741C15.1808 4.83131 16.1191 5.76968 17.0489 6.71788C17.155 6.82603 17.2148 6.98027 17.2929 7.11362L17.2935 7.41658Z" fill="#B3B3B3"/>
</svg>
