<svg width="18" height="21" viewBox="0 0 18 21" fill="none" xmlns="http://www.w3.org/2000/svg">
<path fill-rule="evenodd" clip-rule="evenodd" d="M8.64671 20.8763C8.64671 20.8763 17.2934 15.1827 17.2934 8.54029C17.2934 6.27526 16.3824 4.10301 14.7609 2.50139C13.1393 0.899778 10.94 0 8.64671 0C6.35346 0 4.15414 0.899778 2.53256 2.50139C0.91099 4.10301 0 6.27526 0 8.54029C0 15.1827 8.64671 20.8763 8.64671 20.8763ZM11.5291 7.59139C11.5291 9.16362 10.2387 10.4382 8.64684 10.4382C7.05502 10.4382 5.7646 9.16362 5.7646 7.59139C5.7646 6.01917 7.05502 4.74463 8.64684 4.74463C10.2387 4.74463 11.5291 6.01917 11.5291 7.59139Z" fill="#B3B3B3"/>
</svg>
