<svg width="19" height="16" viewBox="0 0 19 16" fill="none" xmlns="http://www.w3.org/2000/svg">
<path d="M18.2881 12.0627C17.6572 12.786 16.7991 13.042 15.8655 13.2526C15.8655 13.0576 15.8785 12.8809 15.8655 12.7048C15.812 12.0679 15.781 11.4258 15.681 10.7961C15.5243 9.80576 15.1249 8.92846 14.3081 8.302C14.0455 8.1012 13.7539 7.94004 13.4888 7.76913C13.7326 7.71779 14.0049 7.68724 14.2539 7.59951C14.4507 7.53453 14.623 7.39091 14.8068 7.28498C14.8546 7.25769 14.9133 7.21285 14.9578 7.22C15.5694 7.33892 16.1765 7.47409 16.7488 7.73988C17.512 8.0921 17.9546 8.69451 18.1036 9.51073C18.1823 9.94483 18.2081 10.388 18.2559 10.8273C18.2707 10.9631 18.2797 11.0996 18.2907 11.2354L18.2881 12.0627Z" fill="#B3B3B3"/>
<path d="M9.1512 15.6524C7.97764 15.6342 6.81054 15.5588 5.66731 15.2625C4.94925 15.076 4.26215 14.818 3.67247 14.3469C3.63053 14.3131 3.59118 14.2767 3.54989 14.2422C3.44134 14.1601 3.35561 14.0511 3.30092 13.926C3.24624 13.8008 3.22444 13.6635 3.23763 13.5274C3.29247 12.6618 3.26989 11.7903 3.43763 10.9332C3.54602 10.3763 3.72215 9.84663 4.0886 9.39954C4.52537 8.86536 5.10989 8.56318 5.74731 8.36627C6.25699 8.20836 6.77958 8.09723 7.30087 7.97636C7.33928 7.97117 7.37834 7.97384 7.4157 7.98423C7.45306 7.99461 7.48796 8.01249 7.51829 8.0368C8.02022 8.4748 8.61506 8.61776 9.26023 8.59697C9.84604 8.57812 10.3835 8.41566 10.8222 7.99716C10.8406 7.98364 10.8615 7.97397 10.8836 7.96872C10.9058 7.96348 10.9288 7.96276 10.9512 7.96661C11.7177 8.10828 12.4738 8.28374 13.186 8.61646C14.1035 9.04472 14.6183 9.7784 14.8306 10.761C14.9841 11.468 15.0112 12.1848 15.0396 12.9055C15.048 13.1271 15.0396 13.3506 15.0628 13.5696C15.0944 13.8361 14.9899 14.0245 14.8048 14.2013C14.4513 14.523 14.0424 14.777 13.5983 14.9506C12.6538 15.3405 11.6589 15.5088 10.6493 15.5887C10.1499 15.6206 9.65055 15.6297 9.1512 15.6524Z" fill="#B3B3B3"/>
<path d="M12.3113 3.64906C12.2855 4.89092 11.9558 5.99957 11.0364 6.86712C9.87514 7.96342 8.20804 7.89454 7.11514 6.72286C6.49241 6.05907 6.11756 5.19826 6.05449 4.28721C5.98545 3.4606 6.02094 2.63529 6.26416 1.83597C6.57771 0.796209 7.29643 0.231488 8.3403 0.0664252C8.95799 -0.0364604 9.5895 -0.0196978 10.2009 0.115814C11.2713 0.358858 11.8861 1.0555 12.1068 2.10826C12.2126 2.61124 12.2455 3.13567 12.3113 3.64906Z" fill="#B3B3B3"/>
<path d="M5.71638 0.861108C5.00219 2.82171 4.91831 4.74008 5.95251 6.63179C5.24283 7.04835 4.50605 7.09449 3.77509 6.68833C2.9467 6.22824 2.5125 5.47506 2.34347 4.56526C2.20341 3.78996 2.24762 2.99227 2.4725 2.23749C2.70992 1.41673 3.27702 0.960535 4.09638 0.814319C4.63388 0.71826 5.18523 0.734184 5.71638 0.861108Z" fill="#B3B3B3"/>
<path d="M12.3507 6.62915C13.383 4.73548 13.2978 2.82297 12.5804 0.841569C12.8436 0.814275 13.1217 0.772035 13.401 0.760337C13.8714 0.740192 14.3385 0.796079 14.7746 0.991035C15.0154 1.09027 15.2311 1.24259 15.4058 1.4368C15.5806 1.63101 15.7099 1.86218 15.7843 2.11333C16.1017 3.16804 16.1714 4.23509 15.743 5.27811C15.4204 6.07158 14.8733 6.66099 14.0217 6.89429C13.432 7.05285 12.8733 6.94693 12.3507 6.62915Z" fill="#B3B3B3"/>
<path d="M2.43898 13.2506C1.73833 13.1017 1.10866 12.9146 0.549299 12.5403L0.503493 12.5117C0.167363 12.2888 -0.0500569 12.0256 0.00994322 11.5687C0.101556 10.876 0.0996209 10.1696 0.212524 9.48141C0.387364 8.4267 1.09124 7.83404 2.06479 7.53835C2.47318 7.41423 2.89318 7.32715 3.30866 7.22837C3.33294 7.22153 3.35835 7.21979 3.38332 7.22325C3.40829 7.22672 3.43229 7.23532 3.45382 7.24852C3.82157 7.59879 4.27447 7.71251 4.76092 7.74046C4.78415 7.74046 4.80737 7.74631 4.87705 7.7554C4.79512 7.80089 4.74802 7.82949 4.70028 7.85353C3.6035 8.39356 2.95834 9.28321 2.68543 10.4659C2.52027 11.1749 2.4635 11.8956 2.43769 12.6202C2.43253 12.8223 2.43898 13.0251 2.43898 13.2506Z" fill="#B3B3B3"/>
</svg>
