<svg width="24" height="25" viewBox="0 0 24 25" fill="none" xmlns="http://www.w3.org/2000/svg">
<path d="M9.61925 19.6862V17.1299C9.61924 16.4821 10.146 15.9558 10.7984 15.9517H13.1941C13.8495 15.9517 14.3808 16.4792 14.3808 17.1299V19.6788C14.3808 20.2406 14.8373 20.6972 15.4032 20.7013H17.0377C17.801 20.7032 18.5338 20.4036 19.0742 19.8684C19.6147 19.3332 19.9185 18.6065 19.9185 17.8486V10.5872C19.9184 9.97504 19.6451 9.39435 19.1721 9.00158L13.6195 4.5929C12.6489 3.82177 11.2627 3.84668 10.3208 4.65218L4.88759 9.00158C4.39225 9.38277 4.0962 9.96519 4.08157 10.5872V17.8412C4.08157 19.4208 5.37134 20.7013 6.96236 20.7013H8.55948C8.83194 20.7032 9.09393 20.5972 9.2873 20.4066C9.48066 20.216 9.58941 19.9567 9.5894 19.6862H9.61925Z" fill="url(#paint0_linear_2_1230)"/>
<defs>
<linearGradient id="paint0_linear_2_1230" x1="5.27701" y1="4.03089" x2="19.9682" y2="4.46006" gradientUnits="userSpaceOnUse">
<stop stop-color="#5FCD70"/>
<stop offset="1" stop-color="#0E826B"/>
</linearGradient>
</defs>
</svg>
