<svg width="27" height="32" viewBox="0 0 27 32" fill="none" xmlns="http://www.w3.org/2000/svg">
<path opacity="0.4" fill-rule="evenodd" clip-rule="evenodd" d="M6.38345 27.6356C6.38345 26.7284 7.11785 25.994 8.02505 25.994C8.92145 25.994 9.65585 26.7284 9.65585 27.6356C9.65585 28.532 8.92145 29.2664 8.02505 29.2664C7.11785 29.2664 6.38345 28.532 6.38345 27.6356ZM18.5335 27.6356C18.5335 26.7284 19.2679 25.994 20.1751 25.994C21.0715 25.994 21.8059 26.7284 21.8059 27.6356C21.8059 28.532 21.0715 29.2664 20.1751 29.2664C19.2679 29.2664 18.5335 28.532 18.5335 27.6356Z" fill="url(#paint0_linear_302_234)"/>
<path fill-rule="evenodd" clip-rule="evenodd" d="M21.8061 12.2569C22.4649 12.2569 22.8969 12.4837 23.3289 12.9805C23.7609 13.4773 23.8365 14.1901 23.7393 14.837L22.7133 21.9218C22.5189 23.2837 21.3525 24.287 19.9809 24.287H8.19807C6.76167 24.287 5.57367 23.1854 5.45487 21.7609L4.46127 9.98784L2.83047 9.70704C2.39847 9.63144 2.09607 9.21024 2.17167 8.77824C2.24727 8.33544 2.66847 8.04384 3.11127 8.10864L5.68707 8.49744C6.05427 8.56332 6.32427 8.86464 6.35667 9.23184L6.56187 11.651C6.59427 11.9977 6.87507 12.2569 7.22067 12.2569H21.8061ZM15.2613 17.8718H18.2529C18.7065 17.8718 19.0629 17.5046 19.0629 17.0618C19.0629 16.6082 18.7065 16.2518 18.2529 16.2518H15.2613C14.8077 16.2518 14.4513 16.6082 14.4513 17.0618C14.4513 17.5046 14.8077 17.8718 15.2613 17.8718Z" fill="url(#paint1_linear_302_234)"/>
<circle cx="19.98" cy="7.02" r="6.52" fill="#FF4B4B" stroke="white"/>
<path d="M18.663 9.58786C18.4923 9.58786 18.367 9.55053 18.287 9.47586C18.2123 9.39586 18.175 9.28119 18.175 9.13186C18.175 9.04119 18.199 8.95319 18.247 8.86786C18.295 8.78253 18.3643 8.69186 18.455 8.59586L20.063 6.88386C20.3083 6.62786 20.4843 6.39586 20.591 6.18786C20.6976 5.97453 20.751 5.76119 20.751 5.54786C20.751 5.28119 20.6656 5.07853 20.495 4.93986C20.3296 4.80119 20.087 4.73186 19.767 4.73186C19.5856 4.73186 19.4043 4.75853 19.223 4.81186C19.0416 4.85986 18.8576 4.94519 18.671 5.06786C18.575 5.13186 18.4843 5.15853 18.399 5.14786C18.319 5.13719 18.247 5.10253 18.183 5.04386C18.1243 4.98519 18.0843 4.91319 18.063 4.82786C18.0416 4.74253 18.0443 4.65719 18.071 4.57186C18.103 4.48119 18.167 4.40386 18.263 4.33986C18.4923 4.18519 18.7483 4.06786 19.031 3.98786C19.319 3.90786 19.607 3.86786 19.895 3.86786C20.3003 3.86786 20.6416 3.92919 20.919 4.05186C21.1963 4.17453 21.407 4.35319 21.551 4.58786C21.695 4.82253 21.767 5.10786 21.767 5.44386C21.767 5.66786 21.7296 5.88653 21.655 6.09986C21.5856 6.31319 21.4763 6.52919 21.327 6.74786C21.183 6.96653 20.9936 7.19853 20.759 7.44386L19.255 9.01186V8.73986H21.607C21.751 8.73986 21.8603 8.77453 21.935 8.84386C22.0096 8.91319 22.047 9.01719 22.047 9.15586C22.047 9.29453 22.0096 9.40119 21.935 9.47586C21.8603 9.55053 21.751 9.58786 21.607 9.58786H18.663Z" fill="white"/>
<defs>
<linearGradient id="paint0_linear_302_234" x1="7.54761" y1="25.994" x2="21.572" y2="28.0264" gradientUnits="userSpaceOnUse">
<stop stop-color="#5FCD70"/>
<stop offset="1" stop-color="#0E826B"/>
</linearGradient>
<linearGradient id="paint1_linear_302_234" x1="3.79181" y1="8.09965" x2="23.8281" y2="8.92241" gradientUnits="userSpaceOnUse">
<stop stop-color="#5FCD70"/>
<stop offset="1" stop-color="#0E826B"/>
</linearGradient>
</defs>
</svg>
