<svg width="18" height="18" viewBox="0 0 18 18" fill="none" xmlns="http://www.w3.org/2000/svg">
<path d="M17.2929 12.8135V15.3899C17.2939 15.6291 17.2443 15.8658 17.1473 16.085C17.0502 16.3041 16.908 16.5008 16.7295 16.6625C16.5511 16.8242 16.3404 16.9473 16.111 17.024C15.8816 17.1006 15.6385 17.129 15.3974 17.1075C12.7217 16.8204 10.1516 15.9173 7.8935 14.471C5.79262 13.1524 4.01144 11.3932 2.67645 9.31814C1.20696 7.07769 0.292468 4.52685 0.00705755 1.87228C-0.014671 1.63479 0.0139049 1.39544 0.0909655 1.16946C0.168026 0.943473 0.291883 0.735814 0.454651 0.5597C0.617419 0.383586 0.815531 0.242876 1.03637 0.146529C1.25722 0.0501814 1.49595 0.000307824 1.73738 8.32634e-05H4.34591C4.76788 -0.00401878 5.17697 0.143571 5.49693 0.415344C5.81688 0.687117 6.02586 1.06453 6.08492 1.47723C6.19502 2.30174 6.39921 3.11131 6.69358 3.89048C6.81056 4.19787 6.83588 4.53193 6.76654 4.8531C6.69719 5.17426 6.53608 5.46906 6.3023 5.70256L5.19802 6.79325C6.43582 8.94331 8.23822 10.7235 10.4151 11.9461L11.5194 10.8554C11.7558 10.6245 12.0542 10.4654 12.3794 10.3969C12.7046 10.3284 13.0428 10.3534 13.354 10.4689C14.1429 10.7597 14.9625 10.9614 15.7973 11.0701C16.2197 11.129 16.6055 11.3391 16.8812 11.6605C17.157 11.982 17.3035 12.3923 17.2929 12.8135Z" fill="#B3B3B3"/>
</svg>
